<svg width="368" height="35" viewBox="0 0 368 35" fill="none" xmlns="http://www.w3.org/2000/svg">
<rect x="0.0809937" y="0.0123596" width="367.736" height="9.47" rx="4.735" fill="#F1F1F1"/>
<rect x="0.0809937" y="0.282867" width="281.334" height="9.47" rx="4.735" fill="#70A6E8"/>
<path d="M3.09857 20.9323V21.9167H6.72162V30.735H7.82904V21.9167H11.4521V20.9323H3.09857ZM15.4374 23.8581C15.4374 23.8581 14.9384 23.7213 14.4872 23.7213C13.4482 23.7145 12.6962 24.3092 12.4365 25.1706V23.8581H11.3837V30.735H12.4365V27.2965C12.4365 25.7926 13.0038 24.6305 14.4804 24.6237C14.9521 24.6237 15.4374 24.7399 15.4374 24.7399V23.8581ZM22.2255 25.3004C22.2255 25.3004 21.4941 23.7213 19.6347 23.7213C17.7275 23.7213 16.1279 25.2526 16.1279 27.2965C16.1279 29.3405 17.7275 30.8717 19.6347 30.8717C21.4941 30.8717 22.2255 29.2926 22.2255 29.2926V30.735H23.2783V23.8581H22.2255V25.3004ZM22.2255 27.2965C22.2255 28.8415 21.0976 29.9694 19.7031 29.9694C18.3085 29.9694 17.1806 28.8415 17.1806 27.2965C17.1806 25.7516 18.3085 24.6237 19.7031 24.6237C21.0976 24.6237 22.2255 25.7516 22.2255 27.2965ZM28.1113 29.4635L25.746 23.8581H24.5771L27.5712 30.735H28.6513L31.6454 23.8581H30.4765L28.1113 29.4635ZM35.9042 30.8717C38.3788 30.8717 39.1855 29.0124 39.1855 29.0124H38.0029C38.0029 29.0124 37.3535 29.9694 35.9042 29.9694C34.6533 29.9694 33.621 29.067 33.416 27.7682H39.5068C39.6367 25.2253 37.8798 23.7213 35.9042 23.7213C33.9286 23.7213 32.329 25.1842 32.329 27.2965C32.329 29.4088 33.9286 30.8717 35.9042 30.8717ZM35.9042 24.6237C37.162 24.6237 38.2079 25.5465 38.3925 26.8659H33.4091C33.6005 25.5465 34.6396 24.6237 35.9042 24.6237ZM42.3505 30.735V20.3717H41.2978V30.735H42.3505ZM46.8759 29.9694C45.3925 29.9694 45.0849 29.1491 45.0849 29.1491H43.9911C43.9911 29.1491 44.1826 30.8717 46.8759 30.8717C48.6669 30.8717 49.8017 30.1745 49.8017 28.8688C49.8017 27.4674 48.6601 26.9206 46.8759 26.7223C45.6728 26.5856 45.2011 26.237 45.2011 25.6491C45.2011 25.0749 45.666 24.6237 46.8759 24.6237C48.2568 24.6237 48.5165 25.444 48.5165 25.444H49.6103C49.6103 25.444 49.33 23.7213 46.8759 23.7213C44.9824 23.7213 44.121 24.6237 44.121 25.6491C44.121 26.8795 45.1054 27.4538 46.8759 27.6725C48.3593 27.8571 48.7216 28.1647 48.7216 28.8688C48.7216 29.5729 48.0175 29.9694 46.8759 29.9694Z" fill="#AEAEAE"/>
</svg>
