<svg width="368" height="36" viewBox="0 0 368 36" fill="none" xmlns="http://www.w3.org/2000/svg">
<rect x="0.0809937" y="0.52582" width="367.736" height="9.47" rx="4.735" fill="#F1F1F1"/>
<rect x="0.0809937" y="0.796328" width="195.354" height="9.47" rx="4.735" fill="url(#paint0_linear_1_233)"/>
<path d="M3.09857 29.0815C3.09857 29.0815 3.34467 31.3852 6.80365 31.3852C9.09369 31.3852 10.6113 30.4145 10.6113 28.5825C10.6113 26.8393 9.44916 26.0668 6.80365 25.6293C4.96478 25.3286 4.42474 24.7817 4.42474 23.8452C4.42474 22.8334 5.3476 22.2934 6.80365 22.2934C8.92963 22.2934 9.17572 23.476 9.17572 23.476H10.3652C10.3652 23.476 10.0576 21.309 6.80365 21.309C4.60931 21.309 3.30365 22.2797 3.30365 23.8452C3.30365 25.3217 4.08978 26.2309 6.80365 26.6821C8.86127 27.0239 9.49017 27.5844 9.49017 28.5825C9.49017 29.6899 8.57416 30.4008 6.80365 30.4008C4.664 30.4008 4.28802 29.0815 4.28802 29.0815H3.09857ZM18.5615 27.81C18.5615 25.6293 17.5771 24.2348 15.5468 24.2348C13.749 24.2348 13.3456 25.6088 13.3115 25.684V20.8852H12.2587V31.2485H13.3115V27.81C13.3115 26.3403 13.872 25.1371 15.4101 25.1371C16.9482 25.1371 17.5087 26.3403 17.5087 27.81V31.2485H18.5615V27.81ZM20.2021 27.81C20.2021 29.9223 21.8017 31.3852 23.7773 31.3852C25.7529 31.3852 27.3525 29.9223 27.3525 27.81C27.3525 25.6977 25.7529 24.2348 23.7773 24.2348C21.8017 24.2348 20.2021 25.6977 20.2021 27.81ZM21.2548 27.81C21.2548 26.2651 22.3828 25.1371 23.7773 25.1371C25.1718 25.1371 26.2997 26.2651 26.2997 27.81C26.2997 29.3549 25.1718 30.4828 23.7773 30.4828C22.3828 30.4828 21.2548 29.3549 21.2548 27.81ZM30.0458 24.3715H28.9931V34.8852H30.0458V29.8129C30.08 29.8881 30.8251 31.3852 32.6367 31.3852C34.5439 31.3852 36.1435 29.8539 36.1435 27.81C36.1435 25.7661 34.5439 24.2348 32.6367 24.2348C30.8251 24.2348 30.08 25.7387 30.0458 25.8139V24.3715ZM30.0458 27.81C30.0458 26.2651 31.1738 25.1371 32.5683 25.1371C33.9628 25.1371 35.0908 26.2651 35.0908 27.81C35.0908 29.3549 33.9628 30.4828 32.5683 30.4828C31.1738 30.4828 30.0458 29.3549 30.0458 27.81ZM38.8369 24.3715H37.7841V34.8852H38.8369V29.8129C38.871 29.8881 39.6161 31.3852 41.4277 31.3852C43.3349 31.3852 44.9345 29.8539 44.9345 27.81C44.9345 25.7661 43.3349 24.2348 41.4277 24.2348C39.6161 24.2348 38.871 25.7387 38.8369 25.8139V24.3715ZM38.8369 27.81C38.8369 26.2651 39.9648 25.1371 41.3593 25.1371C42.7538 25.1371 43.8818 26.2651 43.8818 27.81C43.8818 29.3549 42.7538 30.4828 41.3593 30.4828C39.9648 30.4828 38.8369 29.3549 38.8369 27.81ZM47.6279 24.3715H46.5751V34.8852H47.6279V29.8129C47.662 29.8881 48.4072 31.3852 50.2187 31.3852C52.1259 31.3852 53.7255 29.8539 53.7255 27.81C53.7255 25.7661 52.1259 24.2348 50.2187 24.2348C48.4072 24.2348 47.662 25.7387 47.6279 25.8139V24.3715ZM47.6279 27.81C47.6279 26.2651 48.7558 25.1371 50.1503 25.1371C51.5449 25.1371 52.6728 26.2651 52.6728 27.81C52.6728 29.3549 51.5449 30.4828 50.1503 30.4828C48.7558 30.4828 47.6279 29.3549 47.6279 27.81ZM55.5439 31.2485H56.5966V24.3715H55.5439V31.2485ZM55.3661 22.4301C55.3661 22.8198 55.6874 23.1274 56.0703 23.1274C56.4531 23.1274 56.7744 22.8198 56.7744 22.4301C56.7744 22.0473 56.4531 21.7328 56.0703 21.7328C55.6874 21.7328 55.3661 22.0473 55.3661 22.4301ZM64.9911 27.81C64.9911 25.6293 64.0068 24.2348 61.9765 24.2348C60.1786 24.2348 59.7753 25.6088 59.7411 25.684V24.3715H58.6884V31.2485H59.7411V27.81C59.7411 26.3403 60.3017 25.1371 61.8398 25.1371C63.3779 25.1371 63.9384 26.3403 63.9384 27.81V31.2485H64.9911V27.81ZM72.7294 29.8129V30.7016C72.7294 32.4995 72.3193 33.9828 70.3027 33.9828C68.9013 33.9828 68.5185 33.0942 68.5185 33.0942H67.3564C67.3564 33.0942 67.7939 34.8852 70.3027 34.8852C72.7636 34.8852 73.7822 33.2856 73.7822 30.9067V24.3715H72.7294V25.8139C72.6884 25.7387 71.9501 24.2348 70.1386 24.2348C68.2314 24.2348 66.6318 25.7661 66.6318 27.81C66.6318 29.8539 68.2314 31.3852 70.1386 31.3852C71.9501 31.3852 72.6884 29.8881 72.7294 29.8129ZM72.7294 27.81C72.7294 29.3549 71.6015 30.4828 70.207 30.4828C68.8124 30.4828 67.6845 29.3549 67.6845 27.81C67.6845 26.2651 68.8124 25.1371 70.207 25.1371C71.6015 25.1371 72.7294 26.2651 72.7294 27.81Z" fill="#AEAEAE"/>
<defs>
<linearGradient id="paint0_linear_1_233" x1="195.435" y1="5.53135" x2="1.67357" y2="5.53135" gradientUnits="userSpaceOnUse">
<stop stop-color="#FCAE73"/>
<stop offset="1" stop-color="#F79042"/>
</linearGradient>
</defs>
</svg>
