<svg width="368" height="35" viewBox="0 0 368 35" fill="none" xmlns="http://www.w3.org/2000/svg">
<rect x="0.0809937" y="0.269005" width="367.736" height="9.47" rx="4.735" fill="#F1F1F1"/>
<rect x="0.0809937" y="0.539513" width="62.1244" height="9.47" rx="4.735" fill="url(#paint0_linear_1_246)"/>
<path d="M4.61615 25.4887V22.1733H10.5087V21.1889H3.50873V30.9917H10.5771V30.0073H4.61615V26.4731H9.77728V25.4887H4.61615ZM13.6806 30.9917V20.6284H12.6279V30.9917H13.6806ZM19.0331 31.1284C21.5078 31.1284 22.3144 29.269 22.3144 29.269H21.1318C21.1318 29.269 20.4824 30.226 19.0331 30.226C17.7822 30.226 16.7499 29.3237 16.5449 28.0249H22.6357C22.7656 25.4819 21.0087 23.978 19.0331 23.978C17.0576 23.978 15.4579 25.4409 15.4579 27.5532C15.4579 29.6655 17.0576 31.1284 19.0331 31.1284ZM19.0331 24.8803C20.291 24.8803 21.3369 25.8032 21.5214 27.1225H16.538C16.7294 25.8032 17.7685 24.8803 19.0331 24.8803ZM30.7363 25.8374C30.7363 25.8374 30.0048 23.978 27.5917 23.978C25.6161 23.978 24.0165 25.5092 24.0165 27.5532C24.0165 29.5971 25.6161 31.1284 27.5917 31.1284C30.0048 31.1284 30.7363 29.269 30.7363 29.269H29.5536C29.5536 29.269 28.9794 30.226 27.5917 30.226C26.1972 30.226 25.0693 29.0981 25.0693 27.5532C25.0693 26.0083 26.1972 24.8803 27.5917 24.8803C28.9794 24.8803 29.5536 25.8374 29.5536 25.8374H30.7363ZM31.6591 25.0171H33.1972V27.977C33.1972 30.0756 33.6279 31.1284 35.371 31.1284C35.9726 31.1284 36.4374 31.019 36.4374 31.019V30.1508C36.4374 30.1508 35.9521 30.226 35.5078 30.226C34.4482 30.226 34.2499 29.4809 34.2499 27.977V25.0171H36.4374V24.1147H34.2499V22.1049H33.1972V24.1147H31.6591V25.0171ZM42.1386 24.1147C42.1386 24.1147 41.6396 23.978 41.1884 23.978C40.1494 23.9712 39.3974 24.5659 39.1376 25.4272V24.1147H38.0849V30.9917H39.1376V27.5532C39.1376 26.0493 39.705 24.8872 41.1816 24.8803C41.6533 24.8803 42.1386 24.9965 42.1386 24.9965V24.1147ZM42.829 27.5532C42.829 29.6655 44.4286 31.1284 46.4042 31.1284C48.3798 31.1284 49.9794 29.6655 49.9794 27.5532C49.9794 25.4409 48.3798 23.978 46.4042 23.978C44.4286 23.978 42.829 25.4409 42.829 27.5532ZM43.8818 27.5532C43.8818 26.0083 45.0097 24.8803 46.4042 24.8803C47.7988 24.8803 48.9267 26.0083 48.9267 27.5532C48.9267 29.0981 47.7988 30.226 46.4042 30.226C45.0097 30.226 43.8818 29.0981 43.8818 27.5532ZM57.9228 27.5532C57.9228 25.3725 56.9384 23.978 54.9081 23.978C53.1103 23.978 52.707 25.352 52.6728 25.4272V24.1147H51.6201V30.9917H52.6728V27.5532C52.6728 26.0835 53.2333 24.8803 54.7714 24.8803C56.3095 24.8803 56.8701 26.0835 56.8701 27.5532V30.9917H57.9228V27.5532ZM60.0146 30.9917H61.0673V24.1147H60.0146V30.9917ZM59.8369 22.1733C59.8369 22.563 60.1581 22.8706 60.541 22.8706C60.9238 22.8706 61.2451 22.563 61.2451 22.1733C61.2451 21.7905 60.9238 21.476 60.541 21.476C60.1581 21.476 59.8369 21.7905 59.8369 22.1733ZM69.6054 25.8374C69.6054 25.8374 68.874 23.978 66.4609 23.978C64.4853 23.978 62.8857 25.5092 62.8857 27.5532C62.8857 29.5971 64.4853 31.1284 66.4609 31.1284C68.874 31.1284 69.6054 29.269 69.6054 29.269H68.4228C68.4228 29.269 67.8486 30.226 66.4609 30.226C65.0663 30.226 63.9384 29.0981 63.9384 27.5532C63.9384 26.0083 65.0663 24.8803 66.4609 24.8803C67.8486 24.8803 68.4228 25.8374 68.4228 25.8374H69.6054ZM73.5908 30.226C72.1074 30.226 71.7997 29.4057 71.7997 29.4057H70.706C70.706 29.4057 70.8974 31.1284 73.5908 31.1284C75.3818 31.1284 76.5165 30.4311 76.5165 29.1255C76.5165 27.7241 75.3749 27.1772 73.5908 26.979C72.3876 26.8422 71.916 26.4936 71.916 25.9057C71.916 25.3315 72.3808 24.8803 73.5908 24.8803C74.9716 24.8803 75.2314 25.7006 75.2314 25.7006H76.3251C76.3251 25.7006 76.0449 23.978 73.5908 23.978C71.6972 23.978 70.8359 24.8803 70.8359 25.9057C70.8359 27.1362 71.8203 27.7104 73.5908 27.9292C75.0742 28.1137 75.4365 28.4213 75.4365 29.1255C75.4365 29.8296 74.7324 30.226 73.5908 30.226Z" fill="#AEAEAE"/>
<defs>
<linearGradient id="paint0_linear_1_246" x1="0.0809938" y1="5.27452" x2="62.2054" y2="5.27452" gradientUnits="userSpaceOnUse">
<stop stop-color="#209D43"/>
<stop offset="1" stop-color="#2BC255"/>
</linearGradient>
</defs>
</svg>
