<svg width="177" height="37" viewBox="0 0 177 37" fill="none" xmlns="http://www.w3.org/2000/svg">
<rect x="1.27338" y="0.929474" width="174.323" height="35.5202" rx="7.5" fill="white" stroke="#197BBD"/>
<path d="M160.295 25.5356C160.831 25.5021 161.307 25.3948 161.723 25.2138C162.138 25.0261 162.49 24.7848 162.779 24.4898C163.067 24.1881 163.285 23.8429 163.432 23.454C163.58 23.0585 163.654 22.6362 163.654 22.187C163.654 21.7445 163.57 21.3691 163.402 21.0607C163.235 20.7523 163.01 20.4909 162.728 20.2764C162.447 20.0618 162.122 19.8842 161.753 19.7434C161.391 19.5959 161.009 19.4585 160.607 19.3311L160.295 25.5356ZM160.295 12.6439C159.785 12.6707 159.34 12.7646 158.957 12.9255C158.582 13.0797 158.267 13.2842 158.012 13.5389C157.757 13.787 157.566 14.0719 157.439 14.3937C157.312 14.7154 157.248 15.054 157.248 15.4093C157.248 15.825 157.322 16.1803 157.469 16.4752C157.617 16.7702 157.818 17.025 158.073 17.2395C158.327 17.4473 158.619 17.6283 158.947 17.7825C159.283 17.93 159.638 18.0674 160.013 18.1948L160.295 12.6439ZM160.647 18.3959C161.123 18.5501 161.595 18.7143 162.065 18.8887C162.534 19.0562 162.953 19.2741 163.322 19.5423C163.69 19.8104 163.989 20.1423 164.217 20.5378C164.445 20.9334 164.559 21.4328 164.559 22.0361C164.559 22.6127 164.461 23.1557 164.267 23.6652C164.079 24.1747 163.801 24.6239 163.432 25.0127C163.064 25.3948 162.611 25.7032 162.075 25.9378C161.545 26.1725 160.938 26.3066 160.255 26.3401L160.144 28.4619C160.137 28.549 160.107 28.6228 160.054 28.6831C160.007 28.7434 159.936 28.7736 159.842 28.7736H159.48L159.601 26.3401C158.743 26.2999 157.995 26.1155 157.359 25.787C156.728 25.4585 156.172 25.0261 155.689 24.4898L155.961 24.0976C156.041 23.9971 156.135 23.9468 156.242 23.9468C156.303 23.9468 156.376 23.9836 156.464 24.0574C156.551 24.1311 156.658 24.225 156.785 24.339C156.913 24.4462 157.064 24.5669 157.238 24.701C157.412 24.8283 157.613 24.9524 157.841 25.073C158.076 25.187 158.341 25.2876 158.636 25.3747C158.931 25.4619 159.266 25.5155 159.641 25.5356L159.973 19.13C159.517 18.9892 159.071 18.835 158.636 18.6674C158.2 18.4931 157.811 18.2719 157.469 18.0037C157.134 17.7289 156.862 17.3937 156.655 16.9981C156.447 16.5959 156.343 16.0931 156.343 15.4898C156.343 15.0205 156.43 14.5713 156.604 14.1423C156.785 13.7065 157.043 13.321 157.379 12.9858C157.721 12.6439 158.14 12.3691 158.636 12.1612C159.132 11.9534 159.702 11.8395 160.345 11.8193L160.426 10.14C160.426 10.0462 160.452 9.96906 160.506 9.90872C160.56 9.84839 160.63 9.81822 160.717 9.81822H161.079L160.979 11.8395C161.656 11.8864 162.249 12.0372 162.759 12.292C163.268 12.54 163.734 12.8752 164.156 13.2976L163.935 13.6395C163.868 13.7534 163.778 13.8104 163.664 13.8104C163.583 13.8104 163.476 13.7568 163.342 13.6495C163.214 13.5356 163.043 13.4115 162.829 13.2775C162.621 13.1367 162.363 13.0059 162.055 12.8853C161.746 12.7579 161.374 12.6775 160.938 12.6439L160.647 18.3959Z" fill="#C7C7C7"/>
<path d="M24.6203 19.7007C24.6203 21.1874 24.4605 22.4743 24.1408 23.5613C23.8211 24.6484 23.3854 25.5476 22.8339 26.2589C22.2824 26.9703 21.635 27.5018 20.8916 27.8535C20.1563 28.1972 19.369 28.3691 18.5297 28.3691C17.6905 28.3691 16.9031 28.1972 16.1678 27.8535C15.4324 27.5018 14.789 26.9703 14.2375 26.2589C13.686 25.5476 13.2504 24.6484 12.9306 23.5613C12.6189 22.4743 12.4631 21.1874 12.4631 19.7007C12.4631 18.214 12.6189 16.9272 12.9306 15.8401C13.2504 14.7531 13.686 13.8539 14.2375 13.1425C14.789 12.4311 15.4324 11.9036 16.1678 11.5599C16.9031 11.2082 17.6905 11.0324 18.5297 11.0324C19.369 11.0324 20.1563 11.2082 20.8916 11.5599C21.635 11.9036 22.2824 12.4311 22.8339 13.1425C23.3854 13.8539 23.8211 14.7531 24.1408 15.8401C24.4605 16.9272 24.6203 18.214 24.6203 19.7007ZM23.4214 19.7007C23.4214 18.3259 23.2895 17.151 23.0258 16.1758C22.762 15.2007 22.4063 14.4054 21.9587 13.7899C21.5191 13.1665 20.9995 12.7109 20.4001 12.4231C19.8086 12.1354 19.1851 11.9915 18.5297 11.9915C17.8743 11.9915 17.2508 12.1354 16.6594 12.4231C16.0679 12.7109 15.5483 13.1665 15.1007 13.7899C14.6531 14.4054 14.2974 15.2007 14.0337 16.1758C13.7699 17.151 13.638 18.3259 13.638 19.7007C13.638 21.0835 13.7699 22.2625 14.0337 23.2376C14.2974 24.2047 14.6531 25 15.1007 25.6235C15.5483 26.239 16.0679 26.6906 16.6594 26.9783C17.2508 27.2581 17.8743 27.3979 18.5297 27.3979C19.1851 27.3979 19.8086 27.2581 20.4001 26.9783C20.9995 26.6906 21.5191 26.239 21.9587 25.6235C22.4063 25 22.762 24.2047 23.0258 23.2376C23.2895 22.2625 23.4214 21.0835 23.4214 19.7007Z" fill="#C7C7C7"/>
</svg>
